<?xml version="1.0" standalone="no"?>
<!DOCTYPE svg PUBLIC "-//W3C//DTD SVG 20010904//EN"
 "http://www.w3.org/TR/2001/REC-SVG-20010904/DTD/svg10.dtd">
<svg version="1.0" xmlns="http://www.w3.org/2000/svg"
 width="1000.000000pt" height="1000.000000pt" viewBox="0 0 1000.000000 1000.000000"
 preserveAspectRatio="xMidYMid meet">
<metadata>
Created by potrace 1.11, written by Peter Selinger 2001-2013
</metadata>
<g transform="translate(0.000000,1000.000000) scale(0.100000,-0.100000)"
fill="#000000" stroke="none">
<path d="M4729 9956 c-2 -2 -49 -7 -104 -10 -55 -3 -111 -8 -125 -10 -14 -3
-52 -7 -85 -10 -33 -3 -71 -8 -85 -10 -14 -3 -61 -10 -105 -16 -44 -7 -84 -13
-90 -15 -16 -3 -78 -15 -105 -19 -58 -10 -263 -59 -365 -87 -736 -208 -1404
-576 -1985 -1094 -75 -66 -331 -325 -395 -399 -33 -37 -65 -73 -70 -80 -32
-35 -142 -175 -210 -266 -363 -489 -647 -1081 -801 -1670 -49 -190 -96 -413
-109 -529 -3 -25 -8 -55 -10 -66 -4 -18 -12 -84 -20 -170 -22 -215 -31 -549
-20 -750 6 -121 16 -249 20 -270 3 -11 7 -47 10 -79 6 -68 11 -98 31 -221 8
-49 17 -103 20 -120 7 -45 64 -295 75 -330 5 -16 25 -86 45 -155 34 -118 117
-358 154 -445 9 -22 34 -80 55 -130 58 -136 202 -414 290 -560 326 -541 737
-1000 1248 -1395 267 -206 613 -413 968 -578 371 -173 929 -335 1329 -386 25
-3 54 -8 65 -10 11 -2 52 -7 90 -11 39 -4 81 -9 95 -11 197 -23 690 -23 920 1
19 2 62 6 95 9 33 4 74 8 90 11 17 3 47 7 68 10 78 11 114 16 167 26 30 6 69
13 85 15 17 3 55 12 85 19 30 7 69 16 85 19 31 5 84 19 239 62 106 30 386 123
401 134 6 4 30 14 55 22 136 46 495 222 700 343 236 140 487 320 700 501 147
126 433 411 535 534 43 52 81 97 85 100 14 10 218 287 277 375 146 220 335
561 422 765 176 411 314 895 366 1285 3 22 7 54 10 70 2 17 7 57 10 90 3 33 8
74 10 90 24 184 24 780 0 926 -2 13 -6 51 -9 84 -6 62 -11 97 -22 168 -3 23
-7 51 -9 62 -3 21 -21 127 -30 180 -3 17 -8 37 -10 45 -2 8 -7 30 -10 49 -13
79 -89 353 -139 503 -266 805 -710 1495 -1342 2088 -372 348 -849 665 -1324
880 -366 166 -826 308 -1180 365 -19 3 -60 10 -90 15 -70 12 -136 21 -180 25
-106 11 -159 17 -190 21 -41 6 -676 15 -681 10z"/>
<path d="M6798 292 c-31 -6 -20 -24 12 -20 l30 5 0 -68 c0 -37 5 -71 10 -74
10 -6 13 15 12 93 0 40 1 42 29 42 37 0 38 20 2 21 -16 0 -39 1 -53 2 -14 2
-33 1 -42 -1z"/>
<path d="M6965 218 c3 -91 3 -90 15 -83 5 3 8 33 7 65 -1 33 -1 60 0 60 1 0
16 -29 33 -65 18 -38 36 -63 42 -59 6 4 23 34 39 68 l28 61 1 -70 c0 -91 18
-74 22 23 3 63 1 72 -14 72 -12 0 -29 -22 -49 -62 l-32 -63 -31 63 c-43 89
-64 85 -61 -10z"/>
</g>
</svg>
